<svg id="visual" viewBox="0 0 900 600" width="900" height="600" xmlns="http://www.w3.org/2000/svg" xmlns:xlink="http://www.w3.org/1999/xlink" version="1.1"><rect x="0" y="0" width="900" height="600" fill="#f6f6f6"></rect><g transform="translate(456.7520670869972 321.7824267916901)"><path d="M85.5 -138.4C118 -129.3 156.4 -120.9 164 -97.9C171.6 -75 148.3 -37.5 145.5 -1.6C142.8 34.3 160.6 68.7 150.7 87.6C140.8 106.5 103.1 110 73.4 106.9C43.7 103.8 21.8 94.1 0.6 93.1C-20.7 92.1 -41.3 99.7 -66.6 100.2C-91.9 100.8 -121.7 94.1 -143.9 76.2C-166 58.3 -180.5 29.2 -178.9 0.9C-177.3 -27.3 -159.7 -54.7 -134.7 -67.7C-109.7 -80.6 -77.3 -79.3 -53.7 -93.5C-30 -107.6 -15 -137.3 5.7 -147.3C26.5 -157.2 53 -147.5 85.5 -138.4" fill="#ff7f50"></path></g></svg>