<svg id="visual" viewBox="0 0 900 600" width="900" height="600" xmlns="http://www.w3.org/2000/svg" xmlns:xlink="http://www.w3.org/1999/xlink" version="1.1"><rect x="0" y="0" width="900" height="600" fill="#f6f6f6"></rect><g transform="translate(445.69923880825905 320.6550736331611)"><path d="M103.7 -171.5C132.4 -163.1 152.4 -131.3 153.5 -98.8C154.6 -66.3 136.8 -33.2 120.2 -9.6C103.7 14.1 88.4 28.1 76.9 42.6C65.4 57 57.7 71.8 45.5 90.8C33.3 109.7 16.7 132.9 0.2 132.6C-16.3 132.3 -32.7 108.6 -49.7 92.4C-66.7 76.2 -84.5 67.6 -104.3 53.5C-124.1 39.3 -146.1 19.7 -144.9 0.7C-143.8 -18.3 -119.5 -36.7 -100.4 -52.1C-81.3 -67.6 -67.4 -80.1 -51.5 -95.9C-35.7 -111.8 -17.8 -130.9 9.8 -147.9C37.5 -165 75 -179.9 103.7 -171.5" fill="#ff7f50"></path></g></svg>