<svg id="visual" viewBox="0 0 900 600" width="900" height="600" xmlns="http://www.w3.org/2000/svg" xmlns:xlink="http://www.w3.org/1999/xlink" version="1.1"><rect x="0" y="0" width="900" height="600" fill="#f6f6f6"></rect><g transform="translate(454.52506457299444 285.86305985188494)"><path d="M75.5 -133.6C101.3 -115.9 128.2 -102.7 143.8 -81.2C159.3 -59.7 163.7 -29.8 158.1 -3.2C152.6 23.4 137.2 46.9 127.5 78.6C117.9 110.4 113.9 150.5 93.6 176.2C73.3 202 36.7 213.5 2.1 209.9C-32.5 206.3 -65 187.6 -96 168C-127.1 148.4 -156.6 128 -165.9 99.8C-175.1 71.7 -164.1 35.8 -160.3 2.2C-156.6 -31.5 -160.1 -63 -150.8 -91C-141.5 -119 -119.2 -143.5 -91.9 -160.4C-64.7 -177.3 -32.3 -186.7 -3.8 -180.2C24.8 -173.7 49.7 -151.4 75.5 -133.6" fill="#ff7f50"></path></g></svg>