<svg id="visual" viewBox="0 0 900 600" width="900" height="600" xmlns="http://www.w3.org/2000/svg" xmlns:xlink="http://www.w3.org/1999/xlink" version="1.1"><rect x="0" y="0" width="900" height="600" fill="#f6f6f6"></rect><g transform="translate(444.0472149220889 275.22228121107264)"><path d="M49.2 -79.8C66.1 -75.5 83.7 -67 98.3 -53C112.9 -39 124.4 -19.5 126.6 1.2C128.8 22 121.5 44 114.5 71C107.4 98 100.4 130 81.4 141.3C62.3 152.6 31.2 143.3 -3.2 148.8C-37.5 154.3 -75 174.6 -94.6 163.6C-114.3 152.6 -116 110.3 -114.8 77.8C-113.5 45.3 -109.3 22.7 -104.8 2.6C-100.3 -17.5 -95.6 -35 -91.6 -58.4C-87.6 -81.8 -84.3 -111 -69.2 -116.3C-54 -121.7 -27 -103 -5.4 -93.6C16.2 -84.3 32.3 -84.1 49.2 -79.8" fill="#ff7f50"></path></g></svg>