<svg id="visual" viewBox="0 0 900 600" width="900" height="600" xmlns="http://www.w3.org/2000/svg" xmlns:xlink="http://www.w3.org/1999/xlink" version="1.1"><rect x="0" y="0" width="900" height="600" fill="#f6f6f6"></rect><g transform="translate(465.7358489499205 307.39442412588835)"><path d="M105.8 -173.3C137.5 -164.8 164 -137.4 172.4 -105.4C180.7 -73.3 170.8 -36.7 163.2 -4.4C155.5 27.8 150.1 55.7 136.2 78C122.3 100.4 99.9 117.3 75.8 126.8C51.7 136.4 25.8 138.5 -4.4 146.2C-34.7 153.8 -69.3 167 -101.4 162C-133.4 157.1 -162.8 134 -181.7 104C-200.5 74 -208.8 37 -206.7 1.2C-204.7 -34.7 -192.4 -69.3 -175 -101.8C-157.6 -134.3 -135 -164.6 -105 -174.1C-75 -183.6 -37.5 -172.3 -0.3 -171.9C37 -171.4 74 -181.8 105.8 -173.3" fill="#ff7f50"></path></g></svg>