<svg id="visual" viewBox="0 0 900 600" width="900" height="600" xmlns="http://www.w3.org/2000/svg" xmlns:xlink="http://www.w3.org/1999/xlink" version="1.1"><rect x="0" y="0" width="900" height="600" fill="#ff7f50"></rect><defs><linearGradient id="grad1_0" x1="33.3%" y1="100%" x2="100%" y2="0%"><stop offset="20%" stop-color="#ffffff" stop-opacity="1"></stop><stop offset="80%" stop-color="#ffffff" stop-opacity="1"></stop></linearGradient></defs><defs><linearGradient id="grad1_1" x1="33.3%" y1="100%" x2="100%" y2="0%"><stop offset="20%" stop-color="#ffffff" stop-opacity="1"></stop><stop offset="80%" stop-color="#ffd5c2" stop-opacity="1"></stop></linearGradient></defs><defs><linearGradient id="grad1_2" x1="33.3%" y1="100%" x2="100%" y2="0%"><stop offset="20%" stop-color="#ffab88" stop-opacity="1"></stop><stop offset="80%" stop-color="#ffd5c2" stop-opacity="1"></stop></linearGradient></defs><defs><linearGradient id="grad1_3" x1="33.3%" y1="100%" x2="100%" y2="0%"><stop offset="20%" stop-color="#ffab88" stop-opacity="1"></stop><stop offset="80%" stop-color="#ff7f50" stop-opacity="1"></stop></linearGradient></defs><defs><linearGradient id="grad2_0" x1="0%" y1="100%" x2="66.7%" y2="0%"><stop offset="20%" stop-color="#ffffff" stop-opacity="1"></stop><stop offset="80%" stop-color="#ffffff" stop-opacity="1"></stop></linearGradient></defs><defs><linearGradient id="grad2_1" x1="0%" y1="100%" x2="66.7%" y2="0%"><stop offset="20%" stop-color="#ffd5c2" stop-opacity="1"></stop><stop offset="80%" stop-color="#ffffff" stop-opacity="1"></stop></linearGradient></defs><defs><linearGradient id="grad2_2" x1="0%" y1="100%" x2="66.7%" y2="0%"><stop offset="20%" stop-color="#ffd5c2" stop-opacity="1"></stop><stop offset="80%" stop-color="#ffab88" stop-opacity="1"></stop></linearGradient></defs><defs><linearGradient id="grad2_3" x1="0%" y1="100%" x2="66.7%" y2="0%"><stop offset="20%" stop-color="#ff7f50" stop-opacity="1"></stop><stop offset="80%" stop-color="#ffab88" stop-opacity="1"></stop></linearGradient></defs><g transform="translate(900, 600)"><path d="M-432.7 0C-413.2 -38.2 -393.7 -76.5 -387.1 -125.8C-380.4 -175.1 -386.7 -235.4 -350 -254.3C-313.4 -273.2 -234 -250.6 -191 -262.9C-148.1 -275.3 -141.6 -322.5 -115.9 -356.6C-90.1 -390.8 -45.1 -411.7 0 -432.7L0 0Z" fill="#ff956c"></path><path d="M-324.5 0C-309.9 -28.7 -295.3 -57.4 -290.3 -94.3C-285.3 -131.3 -290 -176.6 -262.5 -190.7C-235.1 -204.9 -175.5 -187.9 -143.3 -197.2C-111.1 -206.4 -106.2 -241.9 -86.9 -267.5C-67.6 -293.1 -33.8 -308.8 0 -324.5L0 0Z" fill="#ffc0a5"></path><path d="M-216.3 0C-206.6 -19.1 -196.9 -38.2 -193.5 -62.9C-190.2 -87.5 -193.3 -117.7 -175 -127.2C-156.7 -136.6 -117 -125.3 -95.5 -131.5C-74 -137.6 -70.8 -161.3 -57.9 -178.3C-45.1 -195.4 -22.5 -205.9 0 -216.3L0 0Z" fill="#ffeae0"></path><path d="M-108.2 0C-103.3 -9.6 -98.4 -19.1 -96.8 -31.4C-95.1 -43.8 -96.7 -58.9 -87.5 -63.6C-78.4 -68.3 -58.5 -62.6 -47.8 -65.7C-37 -68.8 -35.4 -80.6 -29 -89.2C-22.5 -97.7 -11.3 -102.9 0 -108.2L0 0Z" fill="#ffffff"></path></g><g transform="translate(0, 0)"><path d="M432.7 0C390 32.7 347.2 65.5 340.5 110.6C333.7 155.8 362.9 213.3 350 254.3C337.1 295.3 282.2 319.7 232.8 320.4C183.4 321.1 139.5 298.1 101.7 312.9C63.8 327.7 31.9 380.2 0 432.7L0 0Z" fill="#ff956c"></path><path d="M324.5 0C292.5 24.6 260.4 49.1 255.4 83C250.3 116.8 272.2 160 262.5 190.7C252.9 221.5 211.6 239.7 174.6 240.3C137.5 240.8 104.6 223.6 76.2 234.7C47.9 245.8 23.9 285.1 0 324.5L0 0Z" fill="#ffc0a5"></path><path d="M216.3 0C195 16.4 173.6 32.7 170.2 55.3C166.9 77.9 181.5 106.7 175 127.2C168.6 147.6 141.1 159.8 116.4 160.2C91.7 160.5 69.8 149.1 50.8 156.4C31.9 163.8 16 190.1 0 216.3L0 0Z" fill="#ffeae0"></path><path d="M108.2 0C97.5 8.2 86.8 16.4 85.1 27.7C83.4 38.9 90.7 53.3 87.5 63.6C84.3 73.8 70.5 79.9 58.2 80.1C45.8 80.3 34.9 74.5 25.4 78.2C16 81.9 8 95 0 108.2L0 0Z" fill="#ffffff"></path></g></svg>